<?xml version="1.0" standalone="no"?>
<!DOCTYPE svg PUBLIC "-//W3C//DTD SVG 20010904//EN"
 "http://www.w3.org/TR/2001/REC-SVG-20010904/DTD/svg10.dtd">
<svg version="1.0" xmlns="http://www.w3.org/2000/svg"
 width="757.000000pt" height="789.000000pt" viewBox="0 0 757.000000 789.000000"
 preserveAspectRatio="xMidYMid meet">

<g transform="translate(0.000000,789.000000) scale(0.100000,-0.100000)"
fill="#000000" stroke="none">
<path d="M414 7473 c23 -25 30 -45 34 -88 5 -65 20 -73 24 -12 l3 42 65 7 c36
4 1494 6 3240 5 2579 -2 3187 -5 3237 -16 104 -22 97 12 102 -541 3 -277 8
-456 12 -430 5 25 5 261 2 525 l-6 480 -3335 -3 -3336 -2 -35 32 -36 33 29
-32z"/>
<path d="M6310 7203 c-14 -2 -1184 -4 -2600 -6 l-2575 -2 -55 -21 c-92 -35
-140 -63 -192 -112 -94 -88 -166 -208 -186 -312 -8 -38 -13 -890 -16 -2788 -4
-2984 -8 -2800 54 -2923 67 -131 152 -215 287 -283 122 -61 -78 -57 2773 -55
2146 1 2617 3 2673 15 96 19 199 76 277 154 121 120 155 193 170 365 13 149
13 5350 -1 5455 -24 193 -125 352 -294 463 -71 46 -201 67 -315 50z m222 -221
c70 -34 133 -95 163 -158 9 -19 24 -67 33 -107 14 -66 16 -303 16 -2657 1
-1422 -1 -2650 -4 -2730 -5 -136 -7 -149 -37 -212 -40 -84 -97 -147 -170 -186
-113 -59 324 -54 -4331 -52 -1111 0 -1024 -6 -1157 82 -76 49 -123 112 -154
206 l-21 62 0 2709 c0 1743 4 2727 10 2761 22 114 102 219 212 277 l53 28 925
5 c509 3 1706 5 2660 5 l1735 0 67 -33z"/>
<path d="M3691 6860 c-101 -37 -207 -127 -279 -239 -29 -44 -184 -341 -208
-399 -1 -1 -36 11 -79 28 -110 44 -323 97 -441 110 -182 21 -340 -23 -436
-122 -135 -139 -143 -317 -25 -563 82 -170 231 -403 350 -547 24 -29 36 -52
31 -60 -4 -7 -52 -73 -107 -148 -224 -305 -356 -577 -357 -732 0 -166 100
-302 272 -368 139 -54 291 -36 606 70 97 33 179 60 184 60 4 0 8 -6 8 -12 0
-18 110 -242 161 -330 111 -190 217 -279 366 -308 92 -18 196 10 290 79 45 32
123 125 123 144 0 7 -7 3 -15 -7 -8 -11 -15 -15 -15 -9 0 14 25 35 33 27 11
-11 58 72 51 92 -4 14 -3 15 4 6 10 -14 28 14 119 187 69 130 71 132 91 121
41 -22 183 -73 310 -109 160 -46 297 -61 383 -41 131 30 265 125 317 225 34
65 42 200 18 293 -33 131 -183 399 -307 552 -25 30 -71 93 -103 139 l-58 83
24 22 c90 79 345 482 413 654 88 223 55 402 -95 521 -88 70 -145 86 -295 85
-119 0 -144 -4 -293 -43 -90 -23 -204 -57 -255 -76 -50 -19 -92 -33 -92 -32
-1 1 -19 43 -40 92 -146 347 -260 494 -426 549 -93 31 -154 32 -228 6z m177
-199 c77 -39 146 -136 217 -302 19 -46 48 -109 62 -139 15 -30 29 -59 31 -63
2 -4 -27 -21 -65 -38 -37 -17 -127 -59 -199 -94 l-131 -62 -54 34 c-57 37
-228 121 -292 144 -21 7 -35 18 -33 24 3 5 18 42 34 80 101 242 165 346 239
392 26 17 55 33 63 36 33 12 93 6 128 -12z m-1158 -501 c145 -33 400 -107 400
-117 0 -3 -21 -60 -46 -127 -91 -239 -174 -469 -174 -480 0 -18 -138 -191
-152 -191 -21 0 -232 323 -301 460 -100 199 -114 266 -76 356 17 38 32 56 66
76 65 38 177 47 283 23z m2440 -13 c36 -18 51 -33 73 -76 71 -142 9 -304 -279
-726 -41 -60 -78 -111 -82 -113 -4 -1 -16 12 -26 30 -10 18 -37 55 -59 82 -27
32 -53 82 -77 150 -21 55 -71 175 -112 266 -41 91 -80 181 -88 200 -7 19 -17
39 -22 45 -25 28 -6 41 117 78 112 34 299 78 380 90 53 7 129 -4 175 -26z
m-1796 -197 c3 0 44 -18 91 -40 47 -22 89 -40 94 -40 5 0 12 -4 16 -9 8 -14
-370 -269 -382 -257 -9 9 39 139 96 259 45 96 58 115 67 102 6 -8 14 -15 18
-15z m945 -45 c17 -36 31 -70 31 -76 0 -6 17 -45 37 -87 34 -71 65 -153 60
-158 -1 -2 -75 46 -165 106 -89 59 -183 118 -207 131 -25 13 -45 27 -45 30 0
4 54 28 120 54 66 25 120 51 120 56 0 27 22 2 49 -56z m-456 -204 c72 -45 258
-154 271 -160 5 -2 55 -33 112 -70 56 -36 115 -73 131 -82 138 -80 196 -125
277 -213 l87 -95 -80 -94 c-93 -108 -112 -122 -316 -242 -82 -48 -181 -107
-220 -130 -38 -24 -124 -73 -190 -110 l-120 -68 -45 25 c-156 86 -452 261
-570 336 -134 86 -310 245 -310 281 0 18 213 226 270 263 360 234 620 396 638
398 1 0 31 -17 65 -39z m1104 -921 c48 -67 88 -125 88 -130 0 -5 9 -16 20 -24
11 -9 16 -16 10 -16 -7 0 -7 -3 0 -8 25 -18 132 -233 159 -320 29 -94 32 -138
12 -185 -46 -108 -188 -137 -406 -84 -110 27 -326 99 -342 115 -9 9 49 175
121 347 21 50 53 132 71 183 28 79 42 104 99 167 36 41 69 74 73 75 4 0 46
-54 95 -120z m-2131 33 c51 -57 66 -85 92 -159 34 -99 89 -252 150 -421 l41
-112 -152 -50 c-338 -110 -503 -106 -570 17 -53 98 -43 182 41 352 26 52 46
104 45 115 -1 11 1 14 4 7 3 -7 22 14 45 50 82 128 213 281 233 275 5 -2 37
-35 71 -74z m1563 -380 c-28 -70 -61 -152 -72 -180 -11 -29 -22 -51 -26 -50
-3 2 -63 30 -133 62 -71 32 -128 62 -128 65 0 4 48 35 108 69 59 34 150 89
202 122 52 33 96 55 98 50 2 -5 -20 -67 -49 -138z m-1023 21 c114 -69 183
-104 195 -101 28 7 23 -6 -11 -31 -49 -36 -232 -124 -239 -115 -15 17 -131
323 -131 345 0 4 2 8 5 8 3 0 84 -48 181 -106z m719 -380 c61 -26 112 -49 114
-51 8 -5 -130 -287 -170 -350 -22 -34 -62 -82 -89 -107 -78 -73 -121 -82 -205
-42 -59 28 -107 76 -165 166 -58 89 -174 330 -163 339 4 4 37 20 73 35 36 15
121 55 189 89 l123 63 92 -47 c50 -26 141 -68 201 -95z m98 -499 c-3 -9 -8
-14 -10 -11 -3 3 -2 9 2 15 9 16 15 13 8 -4z"/>
<path d="M3693 5376 c-58 -19 -104 -49 -151 -100 -58 -63 -84 -120 -90 -196
-6 -84 9 -136 61 -211 55 -81 128 -122 229 -127 265 -15 452 200 382 439 -21
73 -106 157 -188 188 -66 24 -176 28 -243 7z"/>
<path d="M5341 5339 c-48 -15 -122 -94 -161 -172 -28 -57 -32 -74 -27 -112 12
-84 83 -192 149 -227 56 -29 147 -30 200 -1 43 23 98 79 98 99 0 8 5 13 11 12
15 -4 56 77 64 124 15 87 -52 214 -135 255 -52 26 -150 37 -199 22z"/>
<path d="M6175 3011 c-71 -33 -112 -96 -99 -155 18 -84 67 -126 150 -126 121
0 205 137 141 231 -43 64 -119 84 -192 50z m146 -58 c21 -20 26 -32 24 -68 -2
-52 -16 -72 -70 -96 -73 -33 -105 -23 -133 44 -22 52 -15 92 21 120 56 42 113
42 158 0z"/>
<path d="M6196 2898 c10 -100 10 -101 44 -83 19 10 30 23 30 37 0 20 -1 20
-19 4 -23 -21 -37 -6 -21 23 6 12 16 18 25 15 10 -4 15 0 15 15 0 12 5 21 11
21 5 0 7 5 4 10 -3 6 -26 10 -50 10 l-44 0 5 -52z"/>
<path d="M1635 2931 c-5 -5 4 -1082 11 -1278 l6 -162 157 -82 c86 -45 253
-131 371 -192 118 -60 235 -121 260 -134 l45 -25 260 129 c143 72 278 140 300
153 22 13 60 34 85 48 25 13 65 37 90 52 25 15 57 30 73 34 l27 6 0 725 0 725
-362 0 c-200 0 -578 1 -841 2 -263 2 -480 1 -482 -1z m897 -173 c22 -6 59 -29
82 -49 39 -34 52 -55 70 -111 5 -16 8 -16 36 -2 16 9 63 18 103 20 153 11 186
-48 151 -267 -6 -34 -4 -37 40 -63 82 -48 133 -137 121 -214 -5 -35 -17 -55
-59 -98 -33 -35 -63 -56 -84 -60 -18 -4 -34 -10 -37 -14 -2 -4 5 -31 17 -61
56 -146 3 -248 -135 -257 -42 -3 -75 1 -100 11 l-37 16 -16 -37 c-35 -85 -119
-142 -209 -142 -96 0 -149 40 -196 145 -20 46 -21 46 -41 28 -29 -26 -150 -25
-196 2 -38 23 -67 65 -77 112 -6 28 10 112 30 164 4 12 -1 18 -20 23 -64 16
-135 123 -135 202 1 70 78 167 143 181 31 6 32 13 12 68 -8 22 -14 63 -15 90
-1 144 62 192 215 166 45 -8 71 -8 73 -2 17 50 97 125 158 146 49 18 57 18
106 3z"/>
<path d="M2418 2663 c-38 -30 -68 -71 -68 -96 0 -8 30 -33 66 -56 l66 -41 56
50 c31 28 62 48 69 46 20 -8 15 8 -17 52 -54 75 -113 90 -172 45z"/>
<path d="M2078 2538 c-22 -18 -28 -64 -16 -128 16 -89 19 -92 76 -73 26 9 51
19 56 24 5 5 13 33 17 63 4 29 10 63 14 75 5 18 0 24 -29 36 -43 18 -97 19
-118 3z"/>
<path d="M2760 2543 c-38 -7 -40 -14 -20 -73 11 -30 19 -67 20 -82 0 -25 6
-29 57 -44 54 -16 57 -16 70 2 7 10 13 42 13 71 0 29 5 53 10 53 16 0 11 26
-11 54 -17 22 -28 26 -67 25 -26 -1 -58 -4 -72 -6z"/>
<path d="M2598 2460 c-75 -49 -76 -54 -17 -80 28 -12 67 -24 86 -27 33 -6 34
-5 28 23 -10 47 -36 114 -44 114 -4 0 -28 -14 -53 -30z"/>
<path d="M2295 2424 c-9 -30 -14 -58 -11 -61 9 -9 139 30 143 43 4 11 -85 74
-104 74 -6 0 -18 -25 -28 -56z"/>
<path d="M2470 2343 c0 -14 -58 -44 -118 -62 -51 -15 -55 -19 -69 -61 -8 -25
-28 -64 -43 -87 -25 -37 -27 -43 -13 -54 27 -23 65 -110 59 -135 -5 -17 -3
-22 7 -18 8 3 53 -8 100 -25 l87 -30 87 42 c49 23 92 43 97 46 5 2 7 -3 3 -12
-3 -9 0 -18 8 -21 20 -7 29 12 15 29 -15 18 -5 50 27 93 l25 33 -32 62 c-36
69 -64 97 -131 132 -25 13 -60 36 -78 50 -17 15 -31 23 -31 18z m43 -164 c27
-12 57 -58 57 -86 0 -28 -36 -80 -60 -88 -32 -10 -88 3 -111 26 -27 27 -26 98
2 133 22 29 69 35 112 15z"/>
<path d="M2160 2265 c-14 -8 -33 -14 -42 -15 -10 0 -18 -6 -18 -14 0 -19 48
-76 65 -76 14 0 30 37 39 88 6 36 -4 40 -44 17z"/>
<path d="M2750 2260 c0 -29 39 -102 50 -95 6 4 10 11 10 17 0 6 12 26 26 45
14 19 24 36 23 37 -2 2 -28 6 -56 10 -49 6 -53 5 -53 -14z"/>
<path d="M2904 2195 c-9 -25 -20 -45 -24 -45 -3 0 -13 -11 -20 -25 -12 -22 -9
-30 30 -90 36 -55 46 -64 64 -59 33 9 69 38 88 71 15 24 16 36 7 68 -12 43
-86 125 -112 125 -9 0 -22 -18 -33 -45z"/>
<path d="M1994 2203 c-55 -36 -74 -62 -74 -103 0 -48 31 -95 79 -120 42 -21
45 -20 54 21 4 15 21 40 38 57 l32 31 -31 35 c-16 19 -33 48 -37 65 -4 17 -10
33 -14 35 -4 3 -25 -7 -47 -21z"/>
<path d="M2146 2012 c-14 -23 -26 -48 -26 -56 0 -11 65 -46 85 -46 12 0 3 62
-14 100 l-19 43 -26 -41z"/>
<path d="M2776 2008 c-21 -50 -21 -92 0 -84 9 3 31 6 50 6 l34 0 -19 38 c-11
20 -26 46 -35 57 -14 19 -15 19 -30 -17z"/>
<path d="M2850 1863 c-14 -7 -37 -13 -52 -13 -36 0 -45 -20 -49 -104 l-4 -70
45 -13 c49 -14 88 -7 122 24 24 22 23 40 -10 120 -27 67 -27 68 -52 56z"/>
<path d="M2066 1847 c-10 -14 -17 -48 -18 -81 -2 -79 11 -90 114 -95 76 -3 81
-2 73 15 -4 11 -12 54 -18 97 -11 73 -13 77 -37 77 -14 0 -41 3 -62 6 -31 5
-38 3 -52 -19z"/>
<path d="M2286 1823 c10 -54 22 -83 34 -83 18 0 64 27 85 50 20 22 20 22 0 36
-21 15 -79 34 -108 34 -15 0 -17 -6 -11 -37z"/>
<path d="M2601 1837 c-49 -17 -61 -40 -34 -69 12 -13 35 -31 52 -41 29 -17 30
-17 40 1 5 10 13 42 17 70 6 50 6 52 -17 51 -13 0 -39 -5 -58 -12z"/>
<path d="M2427 1699 c-27 -21 -58 -39 -69 -39 -17 0 -19 -4 -14 -26 9 -36 51
-99 78 -118 38 -27 92 -20 134 16 33 29 64 81 64 107 0 5 -13 14 -29 19 -16 6
-47 26 -69 46 -22 20 -41 36 -43 35 -2 0 -26 -18 -52 -40z"/>
<path d="M5510 2851 c-225 -31 -371 -161 -425 -376 -28 -115 -5 -238 64 -339
48 -70 139 -114 386 -188 108 -32 153 -55 173 -88 11 -18 11 -21 0 -14 -7 4
-5 -2 6 -14 10 -12 21 -41 23 -66 10 -85 -54 -136 -170 -136 -94 0 -173 29
-278 100 l-90 62 -26 -29 c-31 -32 -125 -175 -144 -217 -13 -27 -12 -30 21
-58 55 -46 186 -105 295 -133 101 -26 242 -35 317 -20 65 13 164 57 232 103
74 50 120 104 164 192 25 50 27 65 27 170 -1 142 -21 202 -97 285 -64 71 -163
119 -346 171 -148 41 -188 63 -215 114 -46 89 14 162 142 174 54 4 184 -22
216 -44 6 -4 26 -13 47 -19 20 -7 39 -18 42 -26 11 -31 35 -12 105 85 40 54
79 104 87 111 13 10 11 16 -8 36 -38 41 -185 122 -257 142 -81 22 -214 32
-291 22z m493 -252 c-8 -8 -13 -7 -18 2 -5 8 -4 10 3 5 7 -4 12 -2 12 5 0 7 3
9 7 6 4 -4 2 -12 -4 -18z m-40 -64 c-30 -37 -50 -47 -34 -16 6 10 7 22 3 26
-4 5 -1 5 6 1 7 -4 15 -1 18 8 3 9 13 16 20 16 10 0 6 -11 -13 -35z m15 -1014
c-7 -11 -19 -23 -26 -26 -15 -5 -8 9 17 35 21 22 26 17 9 -9z"/>
<path d="M3733 2709 c4 -74 7 -147 7 -164 l0 -30 201 -2 c111 -1 203 -4 205
-6 2 -2 4 -254 4 -560 0 -306 3 -570 6 -586 5 -26 9 -29 25 -21 10 6 84 10
166 10 l148 0 0 585 0 585 198 0 197 0 0 155 0 155 -308 0 c-170 0 -432 3
-582 7 l-273 6 6 -134z"/>
<path d="M7121 5753 c0 -351 2 -633 5 -628 7 19 9 1265 2 1265 -5 0 -8 -287
-7 -637z"/>
<path d="M7122 5090 c0 -14 2 -19 5 -12 2 6 2 18 0 25 -3 6 -5 1 -5 -13z"/>
<path d="M7123 4980 c0 -47 2 -66 4 -42 2 23 2 61 0 85 -2 23 -4 4 -4 -43z"/>
<path d="M7121 4624 c0 -11 3 -14 6 -6 3 7 2 16 -1 19 -3 4 -6 -2 -5 -13z"/>
<path d="M7121 4504 c0 -11 3 -14 6 -6 3 7 2 16 -1 19 -3 4 -6 -2 -5 -13z"/>
<path d="M7123 4270 c0 -25 2 -35 4 -22 2 12 2 32 0 45 -2 12 -4 2 -4 -23z"/>
<path d="M7123 3870 c0 -96 0 -100 9 -52 6 32 6 72 0 105 -8 47 -9 42 -9 -53z"/>
<path d="M7123 3700 c0 -30 2 -43 4 -27 2 15 2 39 0 55 -2 15 -4 2 -4 -28z"/>
<path d="M7122 3360 c0 -14 2 -19 5 -12 2 6 2 18 0 25 -3 6 -5 1 -5 -13z"/>
<path d="M7122 3295 c0 -16 2 -22 5 -12 2 9 2 23 0 30 -3 6 -5 -1 -5 -18z"/>
<path d="M7122 3200 c0 -19 2 -27 5 -17 2 9 2 25 0 35 -3 9 -5 1 -5 -18z"/>
<path d="M7122 3063 c0 -33 1 -35 10 -17 6 14 7 28 1 39 -8 13 -10 8 -11 -22z"/>
<path d="M7122 2895 c0 -16 2 -22 5 -12 2 9 2 23 0 30 -3 6 -5 -1 -5 -18z"/>
<path d="M7124 2745 c0 -66 1 -92 3 -57 2 34 2 88 0 120 -2 31 -3 3 -3 -63z"/>
<path d="M7122 2585 c0 -16 2 -22 5 -12 2 9 2 23 0 30 -3 6 -5 -1 -5 -18z"/>
<path d="M7121 2484 c0 -11 3 -14 6 -6 3 7 2 16 -1 19 -3 4 -6 -2 -5 -13z"/>
<path d="M7123 2315 c0 -27 2 -38 4 -22 2 15 2 37 0 50 -2 12 -4 0 -4 -28z"/>
<path d="M7121 1684 c0 -11 3 -14 6 -6 3 7 2 16 -1 19 -3 4 -6 -2 -5 -13z"/>
<path d="M7121 724 c0 -11 3 -14 6 -6 3 7 2 16 -1 19 -3 4 -6 -2 -5 -13z"/>
<path d="M7122 639 c-1 -37 -5 -80 -8 -96 -9 -43 -58 -73 -125 -74 -68 -2 -48
-6 64 -14 l87 -7 57 -51 c34 -31 50 -42 40 -26 -10 14 -37 40 -62 58 l-44 32
-4 122 c-1 67 -4 92 -5 56z"/>
</g>
</svg>
